FILE "La geometría y las matemáticas [B0725JH14W].m4b" MP3
TRACK 1 AUDIO
  TITLE "Capítulo 1"
  INDEX 01 0:00:00
TRACK 2 AUDIO
  TITLE "Capítulo 2"
  INDEX 01 19:37:15
TRACK 3 AUDIO
  TITLE "Capítulo 3"
  INDEX 01 41:31:11
TRACK 4 AUDIO
  TITLE "Capítulo 4"
  INDEX 01 64:30:60
